# xmcd
#
# Track frame offsets:
#	180
#	14076
#	28594
#	47860
#	63249
#	81412
#	92185
#	103346
#	122771
#	132342
#
# Disc length: 2070 seconds
#
# Revision: 4
# Processed by: cddbd v1.5.2PL0 Copyright (c) Steve Scherf et al.
# Submitted via: audiograbber 1.83.01
#
DISCID=8e08140a
DTITLE=Various Artist - New Country - Volume 4 - Number 8
DYEAR=1997
DGENRE=Country
TTITLE0=Perfect Stranger - Fire When Ready
TTITLE1=Jack Ingram - That's Not Me (single version)
TTITLE2=Joy Lynn White - Why Do I Love You
TTITLE3=Baillie and The Boys - You're My Weakness
TTITLE4=Kris Tyler - Keeping Your Kisses (single version)
TTITLE5=Roger Miller - Husbands And Wives
TTITLE6=The Statler Brothers - Bed Of Rose's
TTITLE7=Bill And Bonnie Hearne - Walk Through The Bottomland
TTITLE8=Barry And Holly Tashian - It's Too Late To Pray
TTITLE9=Bill Frisell - Gimme A Holler
EXTD=
EXTT0=
EXTT1=
EXTT2=
EXTT3=
EXTT4=
EXTT5=
EXTT6=
EXTT7=
EXTT8=
EXTT9=
PLAYORDER=
